<?xml version="1.0" encoding="UTF-8" standalone="no"?>
<!DOCTYPE svg PUBLIC "-//W3C//DTD SVG 1.1//EN" "http://www.w3.org/Graphics/SVG/1.1/DTD/svg11.dtd">
<svg width="100%" height="100%" viewBox="0 0 2869 615" version="1.1" xmlns="http://www.w3.org/2000/svg" xmlns:xlink="http://www.w3.org/1999/xlink" xml:space="preserve" xmlns:serif="http://www.serif.com/" style="fill-rule:evenodd;clip-rule:evenodd;stroke-linejoin:round;stroke-miterlimit:2;">
    <g transform="matrix(1,0,0,1,-224.054,-743.2)">
        <g id="Stanford.svg" transform="matrix(3.07991,0,0,3.07991,1656.7,1048.19)">
            <g transform="matrix(1,0,0,1,-600,-400)">
                <g>
                    <path d="M643.151,323.371C650.635,310.413 665.705,303.582 680.304,303.453C693.625,302.591 708.696,304.808 718.029,315.34C713.284,321.598 708.748,327.985 704.003,334.241C698.709,328.168 694.357,319.616 685.805,317.894C677.384,315.288 666.8,319.668 664.609,328.688C661.063,343.002 663.202,357.966 662.679,372.566L690.028,372.566L690.028,388.861L662.653,388.861C662.653,413.421 662.653,437.979 662.627,462.538C662.524,469.499 663.644,476.381 664.948,483.212C671.205,486.105 677.958,487.592 684.866,487.722C684.84,489.417 684.814,492.832 684.788,494.553C662.418,493.093 640.024,492.649 617.681,494.527C617.681,493.093 617.733,490.224 617.733,488.791C624.797,487.539 633.558,484.255 633.844,475.755C636.582,446.895 634.731,417.825 635.279,388.861C629.83,388.861 624.381,388.861 618.932,388.835C618.958,386.383 619.009,383.908 619.035,381.458C624.562,378.902 629.959,376.061 635.277,373.14C635.277,356.402 634.286,338.309 643.152,323.371L643.151,323.371ZM1046.39,303.427C1031.92,306.763 1017.27,309.578 1002.41,310.23C1002.25,311.586 1001.96,314.297 1001.83,315.653C1007.36,317.32 1016.38,316.879 1016.77,324.595C1018.99,340.24 1017.42,356.114 1017.87,371.859C996.569,368.21 972.765,368.445 954.647,381.716C934.807,395.611 928.002,421.528 929.984,444.628C931.104,462.538 940.071,480.919 956.314,489.652C975.658,500.289 1000.4,498.098 1018.52,485.844C1018.65,489.469 1018.73,493.092 1018.75,496.716C1032.78,493.145 1047.12,491.137 1061.54,490.302L1061.54,484.044C1041.11,480.564 1046.76,471.108 1045.32,455.029C1045.35,404.504 1044.56,353.952 1046.39,303.429L1046.39,303.427ZM993.384,384.903C1002.01,384.811 1010.79,387.567 1017.87,392.377C1017.9,419.569 1017.82,446.761 1017.92,473.954C1002.75,480.914 982.229,480.418 970.34,467.54C960.148,456.642 958.427,440.687 959.339,426.452C960.355,413.494 963.07,398.686 974.383,390.654C980.051,386.765 986.673,384.971 993.383,384.901L993.384,384.903ZM186.356,320.033C203.537,318.99 220.769,320.111 237.768,322.51C236.751,334.606 236.855,346.782 237.794,358.879C236.15,358.879 232.866,358.905 231.224,358.905C229.921,351.344 228.565,342.167 220.508,338.803C208.567,333.771 194.593,333.276 182.209,336.873C166.02,341.671 163.36,365.499 175.405,375.902C190.474,389.095 208.932,397.724 224.366,410.524C248.533,429.765 245.381,474.555 216.702,488.034C192.561,499.193 164.221,496.377 139.297,489.363C139.452,477.378 139.01,465.392 138.462,453.421C140.26,453.395 143.885,453.317 145.709,453.291C146.987,460.826 148.161,470.08 155.799,473.965C169.459,481.63 187.083,482.256 201.268,475.66C218.971,465.883 215.711,437.622 199.155,428.106C184.79,417.044 168.287,408.866 155.016,396.376C140.312,382.714 138.487,358.781 147.952,341.704C155.694,328.094 171.311,321.291 186.355,320.039L186.356,320.033ZM288.316,345.661C289.672,345.739 292.41,345.869 293.765,345.947C293.739,355.046 293.739,364.12 293.739,373.218L335.454,373.218L335.454,388.861L293.739,388.861C293.897,410.761 293.4,432.687 293.975,454.613C294.549,462.956 294.782,473.358 302.578,478.468C312.407,484.31 324.165,480.659 333.994,476.827C337.018,484.23 329.328,488.375 323.983,491.452C311.442,497.527 296.139,498.179 283.182,493.122C272.102,488.975 266.757,476.853 266.183,465.747C264.853,440.145 266.183,414.492 266.392,388.864L250.095,388.864L250.016,383.754C267.72,377.079 279.66,361.827 288.316,345.663L288.316,345.661ZM399.95,369.081C381.156,368.89 362.2,378.226 356.161,397.1C357.802,398.037 361.139,399.888 362.808,400.826C370.03,388.077 386.897,381.534 400.193,388.887C410.62,393.632 411.509,406.379 411.301,416.366C394.902,421.632 377.929,425.778 362.443,433.496C343.881,443.299 341.482,471.089 354.779,486.133C370.448,500.498 396.597,498.176 412.081,484.594C416.801,493.925 427.96,497.499 437.682,494.762C446.156,493.118 451.761,486.055 457.315,480.084C456.348,478.987 454.396,476.772 453.431,475.65C449.937,476.537 446,479.299 442.585,476.616C438.152,473.564 438.699,467.438 438.388,462.72C438.699,442.489 439.82,422.206 438.751,401.95C438.23,391.469 433.537,380.753 424.256,375.252C417.005,371.228 408.494,369.171 399.95,369.083L399.95,369.081ZM411.013,432.165C411.117,445.799 411.013,459.434 411.118,473.068C402.383,476.954 392.008,480.552 382.804,476.094C371.541,470.097 372.012,452.162 381.319,444.628C390.261,438.475 400.87,435.58 411.013,432.165Z" style="fill:rgb(140,21,21);fill-rule:nonzero;"/>
                    <path d="M759.27,369.595C745.532,369.751 731.347,373.166 720.606,382.108C704.624,395.04 697.691,416.418 698.395,436.492C698.316,453.672 703.659,472.001 717.193,483.421C733.173,497.344 756.403,498.724 776.295,494.579C797.28,489.963 813.055,471.584 817.513,450.988C822.31,429.61 820.302,404.765 805.598,387.507C794.283,374.264 776.165,369.256 759.272,369.595L759.27,369.595ZM759.453,384.187C766.838,384.331 774.143,387.363 778.875,393.241C787.453,403.747 789.747,417.879 790.373,431.07C790.477,445.435 788.653,460.946 779.605,472.677C770.716,484.174 751.554,485.452 741.308,475.1C733.462,467.828 730.54,457.01 728.767,446.842C726.917,433.337 727.387,419.284 731.637,406.274C734.608,397.567 740.395,388.754 749.572,385.782C752.742,384.654 756.091,384.112 759.455,384.184L759.453,384.187ZM467.118,377.885C481.694,377.65 496.476,376.139 509.928,370.116C510.397,373.583 510.762,377.05 511.049,380.569C526.509,370.455 546.479,366.517 564.182,372.775C576.853,377.024 585.715,389.434 586.838,402.573C589.444,427.577 585.664,452.918 589.001,477.868C589.366,485.714 597.813,487.488 603.94,488.766C603.966,490.226 603.966,493.145 603.992,494.606C583.292,492.962 541.839,494.527 541.839,494.527L541.761,488.616C541.761,488.616 556.714,484.412 557.664,480.11C561.08,461.547 560.272,442.359 560.089,423.509C559.411,412.247 559.698,398.168 548.931,391.312C537.381,384.663 523.225,387.74 511.415,392.041C511.493,416.445 511.415,440.872 511.415,465.276C511.754,471.795 511.286,479.224 515.535,484.646C519.106,487.123 523.59,487.566 527.683,488.713C527.709,490.174 527.735,493.119 527.735,494.605C507.321,493.276 486.856,492.415 466.468,494.579C466.468,493.119 466.52,490.226 466.52,488.791C472.724,487.357 480.911,485.401 482.083,477.894C484.925,459.906 482.735,441.525 483.413,423.38C483.154,413.028 484.3,402.549 482.476,392.327C481.041,385.34 472.515,385.731 467.144,384.351C467.144,382.734 467.118,379.501 467.118,377.884L467.118,377.885ZM831.428,377.337C846.03,377.128 860.629,375.146 874.5,370.48L874.889,381.221C888.917,369.932 910.061,367.065 924.999,378.25L909.422,402.024C902.149,390.814 887.392,388.102 875.739,393.811C875.739,393.811 875.661,443.164 875.817,467.827C876.417,473.328 875.557,480.472 880.717,484.069C885.698,486.989 891.745,486.832 897.298,487.718C897.298,489.414 897.272,492.855 897.272,494.55C874.878,493.037 852.431,492.724 830.035,494.498L830.031,487.719C837.249,486.487 844.765,483.991 845.86,479.688C848.962,469.077 847.451,457.841 847.764,446.917C847.451,429.527 848.39,412.111 847.346,394.749C847.268,386.302 837.699,385.547 831.495,384.321C831.506,381.927 831.453,379.467 831.444,377.334L831.428,377.337Z" style="fill:rgb(140,21,21);fill-rule:nonzero;"/>
                </g>
            </g>
        </g>
    </g>
</svg>
